<svg width="1395" height="1395" viewBox="0 0 1395 1395" fill="none" xmlns="http://www.w3.org/2000/svg">
<path fill-rule="currentColor" clip-rule="evenodd" d="M595 54.0379V117.147L659.934 61.0961L697 29.1004L734.066 61.096L800 118.01V54.9011L736.398 0H657.602L595 54.0379ZM800 182.002L697 93.0916L595 181.138V244.248L659.934 188.197L697 156.201L734.066 188.197L800 245.111V182.002ZM800 309.102L697 220.192L595 308.239V595H309.102L220.192 698L308.239 800H595V1124.48L660.434 1068L697.5 1036L734.566 1068L800 1124.48V800H1085.9L1174.81 697L1086.76 595H800V309.102ZM54.0379 800H117.147L61.0961 735.066L29.1004 698L61.096 660.934L118.01 595H54.9011L0 658.602L3.44432e-06 737.398L54.0379 800ZM182.002 595L93.0916 698L181.138 800H244.248L188.197 735.066L156.201 698L188.197 660.934L245.111 595H182.002ZM1277.85 595H1340.96L1395 657.602V736.398L1340.1 800H1276.99L1333.9 734.066L1365.9 697L1333.9 659.934L1277.85 595ZM1301.91 697L1213 800H1149.89L1206.8 734.066L1238.8 697L1206.8 659.934L1150.75 595H1213.86L1301.91 697ZM800 1188.47L697.5 1099.99L595 1188.47V1251.58L660.434 1195.1L697.5 1163.1L734.566 1195.1L800 1251.58V1188.47ZM800 1315.57L697.5 1227.09L595 1315.57V1378.68L660.434 1322.2L697.5 1290.2L734.566 1322.2L800 1378.68V1315.57ZM744.775 1395L697.5 1354.19L650.225 1395H744.775ZM1256.8 108H1011.2C984.4 108 974 118.8 974 142V235.6C974 259.2 984.4 269.6 1011.2 269.6H1196C1210.4 269.6 1216.8 277.2 1216.8 292V312C1216.8 326 1210.8 334.8 1195.6 334.8H983.6C977.6 334.8 974.4 337.6 974.4 343.6V379.2C974.4 385.2 977.6 388 983.6 388H1205.2C1253.6 388 1276 361.6 1276 322.8V292C1276 248.4 1252 223.6 1206 223.6H1041.2C1035.6 223.6 1033.2 220.8 1033.2 215.2V169.6C1033.2 164 1035.6 161.2 1041.2 161.2H1256.8C1262.8 161.2 1265.6 158.4 1265.6 152.4V116.8C1265.6 110.8 1262.8 108 1256.8 108Z" fill="currentColor"/>
</svg>
