<svg width="1395" height="1395" viewBox="0 0 1395 1395" fill="none" xmlns="http://www.w3.org/2000/svg">
<path fill-rule="currentColor" clip-rule="evenodd" d="M595 117.147V54.0379L657.602 0H736.398L800 54.9011V118.01L734.066 61.096L697 29.1004L659.934 61.0961L595 117.147ZM697 93.0916L800 182.002V245.111L734.066 188.197L697 156.201L659.934 188.197L595 244.248V181.138L697 93.0916ZM697 220.192L800 309.102V595H1086.76L1174.81 697L1085.9 800H800V1124.48L734.566 1068L697.5 1036L660.434 1068L595 1124.48V800H308.239L220.192 698L309.102 595H595V308.239L697 220.192ZM117.147 800H54.0379L3.44432e-06 737.398L0 658.602L54.9011 595H118.01L61.096 660.934L29.1004 698L61.0961 735.066L117.147 800ZM93.0916 698L182.002 595H245.111L188.197 660.934L156.201 698L188.197 735.066L244.248 800H181.138L93.0916 698ZM1340.96 595H1277.85L1333.9 659.934L1365.9 697L1333.9 734.066L1276.99 800H1340.1L1395 736.398V657.602L1340.96 595ZM1213 800L1301.91 697L1213.86 595H1150.75L1206.8 659.934L1238.8 697L1206.8 734.066L1149.89 800H1213ZM697.5 1099.99L800 1188.47V1251.58L734.566 1195.1L697.5 1163.1L660.434 1195.1L595 1251.58V1188.47L697.5 1099.99ZM697.5 1227.09L800 1315.57V1378.68L734.566 1322.2L697.5 1290.2L660.434 1322.2L595 1378.68V1315.57L697.5 1227.09ZM697.5 1354.19L744.775 1395H650.225L697.5 1354.19ZM1087.2 108H1179.6C1260.4 108 1291.6 136.8 1291.6 213.6V282.4C1291.6 359.2 1260.4 388 1179.6 388H1087.2C1006.4 388 975.2 359.2 975.2 282.4V213.6C975.2 136.8 1006.4 108 1087.2 108ZM1034.4 216V280C1034.4 282.459 1034.44 284.818 1034.52 287.079L1193.24 161.771C1189.1 161.38 1184.56 161.2 1179.6 161.2H1087.2C1046 161.2 1034.4 173.6 1034.4 216ZM1232.16 206.212L1070.45 333.885C1075.4 334.515 1080.96 334.8 1087.2 334.8H1179.6C1220.8 334.8 1232.4 322.4 1232.4 280V216C1232.4 212.541 1232.32 209.281 1232.16 206.212Z" fill="currentColor"/>
</svg>
