<svg width="1395" height="1395" viewBox="0 0 1395 1395" fill="none" xmlns="http://www.w3.org/2000/svg">
<path fill-rule="currentColor" clip-rule="evenodd" d="M180 0C80.5887 0 0 80.5887 0 180V278.387L174.563 383.228C225.975 297.591 297.827 225.626 383.373 174.077L278.968 0H180ZM180 1395H277.786L383.493 1219C298.033 1167.53 226.231 1095.68 174.812 1010.19L0 1115.03V1215C0 1314.41 80.5887 1395 180 1395ZM1395 1215V1116.21L1219.73 1010.95C1168.13 1096.46 1096.12 1168.27 1010.45 1219.63L1115.63 1395H1215C1314.41 1395 1395 1314.41 1395 1215ZM1215 0H1115.61L1011.21 173.828C1096.9 225.369 1168.87 297.386 1220.36 383.107L1395 278.369V180C1395 80.5887 1314.41 0 1215 0ZM795.966 532.22C822.966 548.438 845.638 571.124 861.841 598.135L965.624 535.891C939.207 491.884 902.263 454.918 858.274 428.475L795.966 532.22ZM536.156 428.819L598.401 532.602C571.566 548.862 549.045 571.527 532.956 598.476L429.21 536.167C455.524 492.23 492.326 455.294 536.156 428.819ZM894.225 368.617L969.407 243.437C1043.68 288.14 1106.07 350.57 1150.73 424.871L1025.5 499.977C993.171 446.182 947.998 400.982 894.225 368.617ZM965.082 858.008L861.337 795.7C845.061 822.523 822.383 845.032 795.423 861.104L857.668 964.888C901.623 938.6 938.581 901.821 965.082 858.008ZM536.432 964.348L598.741 860.603C571.968 844.456 549.467 821.942 533.336 795.159L429.553 857.404C455.899 901.183 492.671 937.976 536.432 964.348ZM756.015 116H574.715C569.465 116 567.015 118.45 567.015 123.7V154.85C567.015 160.1 569.465 162.55 574.715 162.55H745.865C764.415 162.55 772.115 169.2 772.115 183.9V196.15C772.115 209.8 765.115 217.15 742.015 217.15H576.815C571.565 217.15 568.765 219.6 568.765 224.85V249.7C568.765 254.95 571.565 257.4 576.815 257.4H742.015C765.115 257.4 772.465 265.45 772.465 279.8V292.75C772.465 307.8 764.765 314.45 746.565 314.45H574.715C569.465 314.45 567.015 316.9 567.015 322.15V353.3C567.015 358.55 569.465 361 574.715 361H762.315C808.515 361 824.265 337.55 824.265 300.45V280.15C824.265 260.2 817.265 244.8 801.865 235C815.515 224.85 822.515 209.8 822.515 190.55V173.75C822.515 134.9 804.315 116 756.015 116ZM1278 657.035V737.885C1278 808.585 1252.8 835.885 1185.6 835.885H1125.4C1058.2 835.885 1033 808.585 1033 737.885V657.035C1033 586.335 1058.2 559.035 1125.4 559.035H1185.6C1252.8 559.035 1278 586.335 1278 657.035ZM1183.5 610.835H1127.5C1124.82 610.835 1122.27 610.888 1119.86 611.001L1228.56 762.411C1230.6 756.034 1231.45 747.974 1231.45 737.885V657.035C1231.45 620.985 1220.6 610.835 1183.5 610.835ZM1176.04 776.702L1078 632V760C1078.17 768.5 1083.5 785.5 1103.5 785.5H1182L1181.04 784.085L1176.04 776.702ZM693.481 1279H740.031C745.281 1279 748.081 1276.55 748.081 1271.3V1240.15C748.081 1234.9 745.281 1232.45 740.031 1232.45H720.081C714.831 1232.45 712.731 1230 712.731 1225.1V1041.7C712.731 1036.45 710.281 1034 705.031 1034H668.981C663.731 1034 661.281 1036.45 661.281 1041.7V1249.25C661.281 1269.55 670.381 1279 693.481 1279ZM116 812.524V627.024C116 584.674 139.1 565.074 173.05 565.074H197.55C235.7 565.074 257.4 586.074 257.4 626.324V759.324C257.4 771.924 264.05 777.524 277.35 777.524H307.1C312 777.524 314.45 775.424 314.45 770.524V573.474C314.45 568.224 316.9 565.424 322.15 565.424H353.3C358.55 565.424 361 568.224 361 573.474V796.774C361 820.224 351.55 829.324 331.25 829.324H277.35C238.85 829.324 217.15 808.324 217.15 768.074V635.074C217.15 622.474 210.5 616.874 197.55 616.874H182.5C170.25 616.874 162.55 622.124 162.55 635.424V812.524C162.55 817.774 160.1 820.224 154.85 820.224H123.7C118.45 820.224 116 817.774 116 812.524ZM303.632 306.805L342.269 270.741L432.776 280.529L472.985 284.878L474.556 325.29L478.049 415.166L439.411 451.23L434.347 320.942L303.632 306.805ZM226.889 378.436L265.526 342.372L356.033 352.16L396.242 356.509L397.813 396.921L401.306 486.797L362.668 522.861L357.604 392.573L226.889 378.436ZM1050.67 1127.47L1089.09 1091.61L959.107 1077.56L954.072 947.998L915.651 983.86L919.125 1073.23L920.687 1113.42L960.669 1117.74L1050.67 1127.47ZM1126.98 1056.25L1165.4 1020.38L1035.42 1006.33L1030.38 876.769L991.963 912.631L995.437 1002L996.999 1042.19L1036.98 1046.51L1126.98 1056.25ZM482.649 991.229L518.457 1029.59L389.093 1034.62L375.056 1164.41L339.248 1126.05L348.967 1036.18L353.284 996.257L393.41 994.698L482.649 991.229ZM411.526 915.03L447.334 953.394L317.969 958.422L303.933 1088.21L268.125 1049.85L277.844 959.982L282.161 920.058L322.287 918.499L411.526 915.03Z" fill="currentColor"/>
</svg>