<svg width="1395" height="1395" viewBox="0 0 1395 1395" fill="none" xmlns="http://www.w3.org/2000/svg">
<path fill-rule="currentColor" clip-rule="evenodd" d="M0 180C0 80.5887 80.5887 0 180 0H278.968L383.373 174.077C297.827 225.626 225.975 297.591 174.563 383.228L0 278.387V180ZM277.786 1395H180C80.5887 1395 0 1314.41 0 1215V1115.03L174.812 1010.19C226.231 1095.68 298.033 1167.53 383.493 1219L277.786 1395ZM1395 1116.21V1215C1395 1314.41 1314.41 1395 1215 1395H1115.63L1010.45 1219.63C1096.12 1168.27 1168.13 1096.46 1219.73 1010.95L1395 1116.21ZM1115.61 0H1215C1314.41 0 1395 80.5887 1395 180V278.369L1220.36 383.107C1168.87 297.386 1096.9 225.369 1011.21 173.828L1115.61 0ZM861.841 598.135C845.638 571.124 822.966 548.438 795.966 532.22L858.274 428.475C902.263 454.918 939.207 491.884 965.624 535.891L861.841 598.135ZM598.401 532.602L536.156 428.819C492.326 455.294 455.524 492.23 429.21 536.167L532.956 598.476C549.045 571.527 571.566 548.862 598.401 532.602ZM969.407 243.437L894.225 368.617C947.998 400.982 993.171 446.182 1025.5 499.977L1150.73 424.871C1106.07 350.57 1043.68 288.14 969.407 243.437ZM861.337 795.7L965.082 858.008C938.581 901.821 901.623 938.6 857.668 964.888L795.423 861.104C822.383 845.032 845.061 822.523 861.337 795.7ZM598.741 860.603L536.432 964.348C492.671 937.976 455.899 901.183 429.553 857.404L533.336 795.159C549.467 821.942 571.968 844.456 598.741 860.603ZM574.715 116H756.015C804.315 116 822.515 134.9 822.515 173.75V190.55C822.515 209.8 815.515 224.85 801.865 235C817.265 244.8 824.265 260.2 824.265 280.15V300.45C824.265 337.55 808.515 361 762.315 361H574.715C569.465 361 567.015 358.55 567.015 353.3V322.15C567.015 316.9 569.465 314.45 574.715 314.45H746.565C764.765 314.45 772.465 307.8 772.465 292.75V279.8C772.465 265.45 765.115 257.4 742.015 257.4H576.815C571.565 257.4 568.765 254.95 568.765 249.7V224.85C568.765 219.6 571.565 217.15 576.815 217.15H742.015C765.115 217.15 772.115 209.8 772.115 196.15V183.9C772.115 169.2 764.415 162.55 745.865 162.55H574.715C569.465 162.55 567.015 160.1 567.015 154.85V123.7C567.015 118.45 569.465 116 574.715 116ZM1278 737.885V657.035C1278 586.335 1252.8 559.035 1185.6 559.035H1125.4C1058.2 559.035 1033 586.335 1033 657.035V737.885C1033 808.585 1058.2 835.885 1125.4 835.885H1185.6C1252.8 835.885 1278 808.585 1278 737.885ZM1127.5 610.835H1183.5C1220.6 610.835 1231.45 620.985 1231.45 657.035V737.885C1231.45 747.974 1230.6 756.034 1228.56 762.411L1119.86 611.001C1122.27 610.888 1124.82 610.835 1127.5 610.835ZM1127.5 784.085H1181.34L1080.24 643.272C1079.77 647.373 1079.55 651.946 1079.55 657.035V737.885C1079.55 773.935 1090.4 784.085 1127.5 784.085ZM740.031 1279H693.481C670.381 1279 661.281 1269.55 661.281 1249.25L661.281 1041.7C661.281 1036.45 663.731 1034 668.981 1034H705.031C710.281 1034 712.731 1036.45 712.731 1041.7L712.731 1225.1C712.731 1230 714.831 1232.45 720.081 1232.45H740.031C745.281 1232.45 748.081 1234.9 748.081 1240.15V1271.3C748.081 1276.55 745.281 1279 740.031 1279ZM116 627.024L116 812.524C116 817.774 118.45 820.224 123.7 820.224H154.85C160.1 820.224 162.55 817.774 162.55 812.524L162.55 635.424C162.55 622.124 170.25 616.874 182.5 616.874H197.55C210.5 616.874 217.15 622.474 217.15 635.074L217.15 768.074C217.15 808.324 238.85 829.324 277.35 829.324H331.25C351.55 829.324 361 820.224 361 796.774L361 573.474C361 568.224 358.55 565.424 353.3 565.424H322.15C316.9 565.424 314.45 568.224 314.45 573.474L314.45 770.524C314.45 775.424 312 777.524 307.1 777.524H277.35C264.05 777.524 257.4 771.924 257.4 759.324V626.324C257.4 586.074 235.7 565.074 197.55 565.074H173.05C139.1 565.074 116 584.674 116 627.024ZM342.269 270.741L303.632 306.805L434.347 320.942L439.411 451.23L478.049 415.166L474.556 325.29L472.985 284.878L432.776 280.529L342.269 270.741ZM265.526 342.372L226.889 378.436L357.604 392.573L362.668 522.861L401.306 486.797L397.813 396.921L396.242 356.509L356.033 352.16L265.526 342.372ZM1089.09 1091.61L1050.67 1127.47L960.669 1117.74L920.687 1113.42L919.125 1073.23L915.651 983.86L954.072 947.998L959.107 1077.56L1089.09 1091.61ZM1165.4 1020.38L1126.98 1056.25L1036.98 1046.51L996.999 1042.19L995.437 1002L991.963 912.631L1030.38 876.769L1035.42 1006.33L1165.4 1020.38ZM518.457 1029.59L482.649 991.229L393.41 994.698L353.284 996.257L348.967 1036.18L339.248 1126.05L375.056 1164.41L389.093 1034.62L518.457 1029.59ZM447.334 953.394L411.526 915.03L322.287 918.499L282.161 920.058L277.844 959.982L268.125 1049.85L303.933 1088.21L317.969 958.422L447.334 953.394Z" fill="currentColor"/>
</svg>
