<svg width="608" height="1395" viewBox="0 0 608 1395" fill="none" xmlns="http://www.w3.org/2000/svg">
<path fill-rule="currentColor" clip-rule="evenodd" d="M0 54.0379V117.147L64.9339 61.0961L102 29.1004L139.066 61.096L205 118.01V54.9011L141.398 0H62.6016L0 54.0379ZM205 182.002L102 93.0916L0 181.138V244.248L64.9339 188.197L102 156.201L139.066 188.197L205 245.111V182.002ZM205 309.102L102 220.192L0 308.239V595V1124.48L65.4339 1068L102.5 1036L139.566 1068L205 1124.48V595V309.102ZM205 1188.47L102.5 1099.99L0 1188.47V1251.58L65.4339 1195.1L102.5 1163.1L139.566 1195.1L205 1251.58V1188.47ZM205 1315.57L102.5 1227.09L0 1315.57V1378.68L65.4339 1322.2L102.5 1290.2L139.566 1322.2L205 1378.68V1315.57ZM149.775 1395L102.5 1354.19L55.2251 1395H149.775ZM570.6 108H517.4C511.4 108 508.2 110.8 508.2 116.8V152.4C508.2 158.4 511.4 161.2 517.4 161.2H540.2C546.2 161.2 548.6 164 548.6 169.6V379.2C548.6 385.2 551.4 388 557.4 388H598.6C604.6 388 607.4 385.2 607.4 379.2V142C607.4 118.8 597 108 570.6 108Z" fill="currentColor"/>
</svg>
