<svg width="1276" height="1287" viewBox="0 0 1276 1287" fill="none" xmlns="http://www.w3.org/2000/svg">
<path fill-rule="currentColor" clip-rule="evenodd" d="M1205.2 -1.90735e-05H993.2C987.2 -1.90735e-05 984.4 2.79999 984.4 8.79999V44.4C984.4 50.4 987.2 53.2 993.2 53.2H1195.6C1210.8 53.2 1216.8 62 1216.8 76V93.2C1216.8 108 1210.4 115.6 1196 115.6H1044C998 115.6 974 140.4 974 184.4V246C974 269.2 984.4 280 1011.2 280H1266.4C1272.4 280 1275.6 277.2 1275.6 271.2V235.6C1275.6 229.6 1272.4 226.8 1266.4 226.8H1041.2C1035.6 226.8 1033.2 224 1033.2 218.4V184.4C1033.2 169.2 1039.6 161.6 1054 161.6H1206C1252 161.6 1276 136.8 1276 93.2V65.2C1276 26.4 1253.6 -1.90735e-05 1205.2 -1.90735e-05ZM54.0379 692H117.147L61.0961 627.066L29.1004 590L61.096 552.934L118.01 487H54.9011L0 550.602L3.44432e-06 629.398L54.0379 692ZM182.002 487L93.0916 590L181.138 692H244.248L188.197 627.066L156.201 590L188.197 552.934L245.111 487H182.002ZM309.102 487L220.192 590L308.239 692H595V1016.48L660.434 959.996L697.5 928L734.566 959.996L800 1016.48V487L595 487L309.102 487ZM800 1080.47L697.5 991.991L595 1080.47V1143.58L660.434 1087.1L697.5 1055.1L734.566 1087.1L800 1143.58V1080.47ZM800 1207.57L697.5 1119.09L595 1207.57V1270.68L660.434 1214.2L697.5 1182.2L734.566 1214.2L800 1270.68V1207.57ZM744.775 1287L697.5 1246.19L650.225 1287H744.775Z" fill="currentColor"/>
</svg>
