<svg width="800" height="1287" viewBox="0 0 800 1287" fill="none" xmlns="http://www.w3.org/2000/svg">
<path fill-rule="currentColor" clip-rule="evenodd" d="M610.2 -1.52588e-05H398.2C392.2 -1.52588e-05 389.4 2.8 389.4 8.79999V44.4C389.4 50.4 392.2 53.2 398.2 53.2H600.6C615.8 53.2 621.8 62 621.8 76V93.2C621.8 108 615.4 115.6 601 115.6H449C403 115.6 379 140.4 379 184.4V246C379 269.2 389.4 280 416.2 280H671.4C677.4 280 680.6 277.2 680.6 271.2V235.6C680.6 229.6 677.4 226.8 671.4 226.8H446.2C440.6 226.8 438.2 224 438.2 218.4V184.4C438.2 169.2 444.6 161.6 459 161.6H611C657 161.6 681 136.8 681 93.2V65.2C681 26.4 658.6 -1.52588e-05 610.2 -1.52588e-05ZM745.962 487H682.853L738.904 551.934L770.9 589L738.904 626.066L681.99 692H745.099L800 628.398V549.602L745.962 487ZM617.998 692L706.908 589L618.862 487H555.752L611.803 551.934L643.799 589L611.803 626.066L554.889 692H617.998ZM490.898 692L579.808 589L491.761 487L205 487L0 487V1016.48L65.4339 959.996L102.5 928L139.566 959.996L205 1016.48L205 692H490.898ZM205 1080.47L102.5 991.991L0 1080.47V1143.58L65.4339 1087.1L102.5 1055.1L139.566 1087.1L205 1143.58V1080.47ZM205 1207.57L102.5 1119.09L0 1207.57V1270.68L65.4339 1214.2L102.5 1182.2L139.566 1214.2L205 1270.68V1207.57ZM149.775 1287L102.5 1246.19L55.2251 1287H149.775Z" fill="currentColor"/>
</svg>
