<svg width="483" height="981" viewBox="0 0 483 981" fill="none" xmlns="http://www.w3.org/2000/svg">
<path fill-rule="currentColor" clip-rule="evenodd" d="M139 117.147V54.0379L201.602 0H280.398L344 54.9011V118.01L278.066 61.096L241 29.1004L203.934 61.0961L139 117.147ZM241 93.0916L344 182.002V245.111L278.066 188.197L241 156.201L203.934 188.197L139 244.248V181.138L241 93.0916ZM241 220.192L344 309.102V520.768C426.129 559.321 483 642.769 483 739.5C483 872.877 374.877 981 241.5 981C108.123 981 0 872.877 0 739.5C0 642.769 56.8706 559.321 139 520.768V308.239L241 220.192ZM317 740C317 781.974 282.974 816 241 816C199.026 816 165 781.974 165 740C165 698.026 199.026 664 241 664C282.974 664 317 698.026 317 740Z" fill="currentColor"/>
</svg>
