<svg width="483" height="981" viewBox="0 0 483 981" fill="none" xmlns="http://www.w3.org/2000/svg">
<path d="M139 54.0379V117.147L241 29.1004L344 118.01V54.9011L280.398 0H201.602L139 54.0379Z" fill="currentColor"/>
<path d="M344 182.002L241 93.0916L139 181.138V244.248L241 156.201L344 245.111V182.002Z" fill="currentColor"/>
<path fill-rule="evenodd" clip-rule="evenodd" d="M344 309.102L241 220.192L139 308.239V520.768C56.8706 559.321 0 642.769 0 739.5C0 872.877 108.123 981 241.5 981C374.877 981 483 872.877 483 739.5C483 642.769 426.129 559.321 344 520.768V309.102ZM241 825C287.392 825 325 787.392 325 741C325 694.608 287.392 657 241 657C194.608 657 157 694.608 157 741C157 787.392 194.608 825 241 825Z" fill="currentColor"/>
</svg>
