<svg width="1266" height="1395" viewBox="0 0 1266 1395" fill="none" xmlns="http://www.w3.org/2000/svg">
<path fill-rule="currentColor" clip-rule="evenodd" d="M595 117.147V54.0379L657.602 0H736.398L800 54.9011V118.01L734.066 61.096L697 29.1004L659.934 61.0961L595 117.147ZM697 93.0916L800 182.002V245.111L734.066 188.197L697 156.201L659.934 188.197L595 244.248V181.138L697 93.0916ZM697 220.192L800 309.102V595V1124.48L734.566 1068L697.5 1036L660.434 1068L595 1124.48V800H308.239L220.192 698L309.102 595H595V308.239L697 220.192ZM117.147 800H54.0379L3.44432e-06 737.398L0 658.602L54.9011 595H118.01L61.096 660.934L29.1004 698L61.0961 735.066L117.147 800ZM93.0916 698L182.002 595H245.111L188.197 660.934L156.201 698L188.197 735.066L244.248 800H181.138L93.0916 698ZM800 1188.47L697.5 1099.99L595 1188.47V1251.58L660.434 1195.1L697.5 1163.1L734.566 1195.1L800 1251.58V1188.47ZM800 1315.57L697.5 1227.09L595 1315.57V1378.68L660.434 1322.2L697.5 1290.2L734.566 1322.2L800 1378.68V1315.57ZM744.775 1395L697.5 1354.19L650.225 1395H744.775ZM1188 108H980.8C974.8 108 972 110.8 972 116.8V152.4C972 158.4 974.8 161.2 980.8 161.2H1176.4C1197.6 161.2 1206.4 168.8 1206.4 185.6V199.6C1206.4 215.2 1198.4 223.6 1172 223.6H983.2C977.2 223.6 974 226.4 974 232.4V260.8C974 266.8 977.2 269.6 983.2 269.6H1172C1198.4 269.6 1206.8 278.8 1206.8 295.2V310C1206.8 327.2 1198 334.8 1177.2 334.8H980.8C974.8 334.8 972 337.6 972 343.6V379.2C972 385.2 974.8 388 980.8 388H1195.2C1248 388 1266 361.2 1266 318.8V295.6C1266 272.8 1258 255.2 1240.4 244C1256 232.4 1264 215.2 1264 193.2V174C1264 129.6 1243.2 108 1188 108Z" fill="currentColor"/>
</svg>
