<svg width="800" height="1395" viewBox="0 0 800 1395" fill="none" xmlns="http://www.w3.org/2000/svg">
<path fill-rule="currentColor" clip-rule="evenodd" d="M0 117.147V54.0379L62.6016 0H141.398L205 54.9011V118.01L139.066 61.096L102 29.1004L64.9339 61.0961L0 117.147ZM102 93.0916L205 182.002V245.111L139.066 188.197L102 156.201L64.9339 188.197L0 244.248V181.138L102 93.0916ZM102 220.192L205 309.102V595H491.761L579.808 697L490.898 800H205L205 1124.48L139.566 1068L102.5 1036L65.4339 1068L0 1124.48V595V308.239L102 220.192ZM682.853 595H745.962L800 657.602V736.398L745.099 800H681.99L738.904 734.066L770.9 697L738.904 659.934L682.853 595ZM706.908 697L617.998 800H554.889L611.803 734.066L643.799 697L611.803 659.934L555.752 595H618.862L706.908 697ZM205 1188.47L102.5 1099.99L0 1188.47V1251.58L65.4339 1195.1L102.5 1163.1L139.566 1195.1L205 1251.58V1188.47ZM205 1315.57L102.5 1227.09L0 1315.57V1378.68L65.4339 1322.2L102.5 1290.2L139.566 1322.2L205 1378.68V1315.57ZM149.775 1395L102.5 1354.19L55.2251 1395H149.775ZM593 108H385.8C379.8 108 377 110.8 377 116.8V152.4C377 158.4 379.8 161.2 385.8 161.2H581.4C602.6 161.2 611.4 168.8 611.4 185.6V199.6C611.4 215.2 603.4 223.6 577 223.6H388.2C382.2 223.6 379 226.4 379 232.4V260.8C379 266.8 382.2 269.6 388.2 269.6H577C603.4 269.6 611.8 278.8 611.8 295.2V310C611.8 327.2 603 334.8 582.2 334.8H385.8C379.8 334.8 377 337.6 377 343.6V379.2C377 385.2 379.8 388 385.8 388H600.2C653 388 671 361.2 671 318.8V295.6C671 272.8 663 255.2 645.4 244C661 232.4 669 215.2 669 193.2V174C669 129.6 648.2 108 593 108Z" fill="currentColor"/>
</svg>
