<svg width="1395" height="1287" viewBox="0 0 1395 1287" fill="none" xmlns="http://www.w3.org/2000/svg">
<path fill-rule="currentColor" clip-rule="evenodd" d="M1163.2 12L982 135.6C969.6 144 966.4 153.2 966.4 168V198.4C966.4 212.8 974.8 222.8 992 222.8H1202.4V271.2C1202.4 277.2 1205.6 280 1211.6 280H1252.8C1258.8 280 1261.6 277.2 1261.6 271.2V222.8H1294.4C1300.4 222.8 1303.2 220 1303.2 214V181.6C1303.2 175.6 1300.4 172.4 1294.4 172.4H1261.6V40.8C1261.6 8.4 1250 -1.52588e-05 1226.8 -1.52588e-05H1203.2C1185.2 -1.52588e-05 1176.4 3.19999 1163.2 12ZM1035.6 172.4C1033.6 172.4 1032.4 171.2 1032.4 169.6V167.2C1032.4 164.4 1033.2 162.8 1034.8 161.6L1188 56.4C1191.6 54 1193.6 53.2 1196.8 53.2H1199.2C1201.2 53.2 1202.4 54.4 1202.4 57.6V172.4H1035.6ZM117.147 692H54.0379L3.44432e-06 629.398L0 550.602L54.9011 487H118.01L61.096 552.934L29.1004 590L61.0961 627.066L117.147 692ZM93.0916 590L182.002 487H245.111L188.197 552.934L156.201 590L188.197 627.066L244.248 692H181.138L93.0916 590ZM220.192 590L309.102 487L595 487H800L1086.76 487L1174.81 589L1085.9 692H800V1016.48L734.566 959.996L697.5 928L660.434 959.996L595 1016.48V692H308.239L220.192 590ZM1277.85 487H1340.96L1395 549.602V628.398L1340.1 692H1276.99L1333.9 626.066L1365.9 589L1333.9 551.934L1277.85 487ZM1301.91 589L1213 692H1149.89L1206.8 626.066L1238.8 589L1206.8 551.934L1150.75 487H1213.86L1301.91 589ZM800 1080.47L697.5 991.991L595 1080.47V1143.58L660.434 1087.1L697.5 1055.1L734.566 1087.1L800 1143.58V1080.47ZM800 1207.57L697.5 1119.09L595 1207.57V1270.68L660.434 1214.2L697.5 1182.2L734.566 1214.2L800 1270.68V1207.57ZM744.775 1287L697.5 1246.19L650.225 1287H744.775Z" fill="currentColor"/>
</svg>
