<svg width="312" height="380" viewBox="0 0 312 380" fill="none" xmlns="http://www.w3.org/2000/svg">
<path d="M173.678 42.6777C183.441 32.9146 183.441 17.0854 173.678 7.32233C163.915 -2.44078 148.085 -2.44078 138.322 7.32233L52.6447 93L138.322 178.678C148.085 188.441 163.915 188.441 173.678 178.678C183.441 168.915 183.441 153.085 173.678 143.322L148.355 118H156C214.371 118 261.722 165.18 261.999 223.486C262.001 223.854 262 224.223 261.998 224.591C261.843 253.055 250.469 278.862 232.073 297.816C231.703 298.198 231.33 298.577 230.953 298.953C230.577 299.33 230.198 299.703 229.816 300.073C210.986 318.348 185.393 329.693 157.151 329.994C156.407 330.002 155.662 330.002 154.917 329.995C96.8858 329.414 50.0191 282.2 50 224.036L50 224C50 210.193 38.8072 199 25 199C11.1929 199 4.57764e-05 210.193 0 224C0 241.096 2.8089 257.979 8.22989 274C12.5926 286.894 18.6471 299.229 26.2907 310.669C43.4323 336.323 67.7961 356.318 96.3014 368.125C124.807 379.933 156.173 383.022 186.434 377.003C216.695 370.983 244.492 356.126 266.309 334.309C288.126 312.492 302.983 284.695 309.003 254.434C315.022 224.173 311.933 192.807 300.125 164.301C288.318 135.796 268.323 111.432 242.669 94.2908C231.229 86.6471 218.894 80.5926 206 76.2299C190.917 71.1263 175.069 68.3379 159 68.0289V68H148.355L173.678 42.6777Z" fill="white"/>
</svg>
