<svg width="230" height="305" viewBox="0 0 230 305" fill="none" xmlns="http://www.w3.org/2000/svg">
<path fill-rule="evenodd" clip-rule="evenodd" d="M206.911 113.882V92.4781H206.91C206.91 92.4307 206.911 92.3832 206.911 92.3357L206.911 92.2073L206.911 92.0335C206.911 41.2048 165.761 0 115 0C64.2389 0 23.0888 41.2048 23.0888 92.0335C23.0888 92.1818 23.0892 92.33 23.0899 92.4781H23.0888V113.882C10.1852 114.794 0 125.564 0 138.717V280.102C0 293.853 11.1324 305 24.8649 305H205.135C218.868 305 230 293.853 230 280.102V138.717C230 125.564 219.815 114.794 206.911 113.882ZM166.948 92.4781C166.949 92.3301 166.95 92.1819 166.95 92.0335C166.95 63.3043 143.691 40.0146 115 40.0146C86.3089 40.0146 63.0502 63.3043 63.0502 92.0335C63.0502 92.1819 63.0508 92.3301 63.052 92.4781H63.0502V113.819H166.95V92.4781H166.948Z" fill="white"/>
</svg>
