<svg width="358" height="270" viewBox="0 0 358 270" fill="none" xmlns="http://www.w3.org/2000/svg">
<path d="M260.054 16.3234L259.839 16.3682C266.271 19.42 272.511 22.9203 278.511 26.8549C290.057 34.4262 293.28 49.9239 285.708 61.47C278.137 73.0161 262.639 76.2383 251.093 68.6671L251.063 68.6473C202.413 36.7685 137.231 50.0702 104.923 98.2798C104.509 98.899 104.101 99.522 103.699 100.149C102.74 101.646 101.824 103.158 100.949 104.684L134.358 97.7368C147.876 94.9262 161.114 103.607 163.925 117.125C166.735 130.642 158.055 143.88 144.537 146.691L25.9072 171.355L1.24184 52.7263C-1.56886 39.2084 7.11167 25.9707 20.6296 23.1601C34.1476 20.3495 47.3846 29.0296 50.1953 42.5476L57.4848 77.6094L63.3221 68.7076L63.3462 68.7235C72.4162 55.4553 83.4384 43.7316 95.9772 33.9172C106.696 25.527 118.523 18.532 131.188 13.1568C159.59 1.1034 190.929 -2.25704 221.24 3.50042C234.758 6.06769 247.8 10.3967 260.054 16.3234Z" fill="white"/>
<path d="M308.52 227.461C311.331 240.979 324.568 249.659 338.086 246.848C351.604 244.038 360.284 230.8 357.474 217.282L332.808 98.653L214.179 123.318C200.661 126.128 191.98 139.366 194.791 152.884C197.602 166.402 210.839 175.082 224.357 172.272L257.767 165.325C256.892 166.851 255.975 168.363 255.016 169.86C254.615 170.487 254.207 171.11 253.792 171.729C221.484 219.938 156.302 233.24 107.652 201.361L107.622 201.341C96.0764 193.77 80.5786 196.992 73.0073 208.539C65.4361 220.085 68.6584 235.582 80.2044 243.154C84.8241 246.183 89.586 248.955 94.4682 251.463L94.3096 251.496C107.81 258.554 122.345 263.634 137.475 266.508C167.787 272.266 199.125 268.905 227.527 256.852C240.193 251.477 252.02 244.481 262.738 236.091C275.277 226.277 286.299 214.553 295.369 201.285L295.393 201.301L301.231 192.399L308.52 227.461Z" fill="white"/>
</svg>
