<svg width="285" height="288" viewBox="0 0 285 288" fill="none" xmlns="http://www.w3.org/2000/svg">
<path fill-rule="evenodd" clip-rule="evenodd" d="M0 142.526C0 185.613 27.783 215.979 66 232.937V257.5C66 269.098 75.402 278.5 87 278.5C93.1967 278.5 98.7666 275.816 102.61 271.547C104.87 280.707 113.142 287.5 123 287.5C131.395 287.5 138.639 282.575 142 275.456C145.361 282.575 152.605 287.5 161 287.5C170.858 287.5 179.13 280.707 181.39 271.547C185.233 275.816 190.803 278.5 197 278.5C208.598 278.5 218 269.098 218 257.5V235.174C256.731 218.999 285 188.35 285 142.526C285 26.1264 190 -0.973645 142.5 0.0263553C128.5 0.0263553 0 4.52635 0 142.526ZM47.1794 123.427C56.0482 97.4836 79.0936 90.3326 89.5076 90C123.773 90 131.836 161.344 100.594 167.33C69.3513 173.317 36.0934 155.856 47.1794 123.427ZM131.836 195.768C131.836 184.792 138.891 176.311 142.418 176.311C145.945 176.311 153 184.792 153 195.768C153 195.796 153 195.824 153 195.853C153 195.902 153 195.951 153 196C153 205.509 137.307 206.798 133.053 199.867C132.285 198.734 131.836 197.367 131.836 195.768ZM237 123.5C228.2 97.5 205.333 90.3333 195 90C161 90 153 161.5 184 167.5C215 173.5 248 156 237 123.5Z" fill="currentColor"/>
</svg>
